<svg width="640" height="106" viewBox="0 0 640 106" fill="none" xmlns="http://www.w3.org/2000/svg">
<g filter="url(#filter0_f_1_1835)">
<path d="M506.176 18.5181V87.482C506.176 93.1207 494.93 97.6989 481.078 97.6989H165.196C151.344 97.6989 140.098 93.1207 140.098 87.482V18.5181C140.098 12.8794 151.344 8.30127 165.196 8.30127H481.078C494.93 8.30127 506.176 12.8794 506.176 18.5181Z" fill="white"/>
<path d="M506.176 18.5181V87.482C506.176 93.1207 494.93 97.6989 481.078 97.6989H165.196C151.344 97.6989 140.098 93.1207 140.098 87.482V18.5181C140.098 12.8794 151.344 8.30127 165.196 8.30127H481.078C494.93 8.30127 506.176 12.8794 506.176 18.5181Z" stroke="#E2DFDB"/>
</g>
<g opacity="0.0568781">
<path d="M109.333 50.5737H146.353" stroke="white" stroke-width="1.6"/>
<path d="M111.529 51.1807H113.334C113.334 51.1807 113.255 52.8082 113.255 53.4151C113.255 54.022 115.922 56.8316 121.491 56.8316C127.922 56.8316 128.784 56.8316 133.099 56.8316C137.413 56.8316 142.431 54.1814 142.431 53.5111C142.431 52.8409 142.431 51.2123 142.431 51.2123H144.862" stroke="white" stroke-width="1.6"/>
<path d="M142.588 49.7757C142.588 49.7757 142.588 48.8495 142.588 48.4025C142.588 47.9555 139.843 46.6462 138.824 46.6462C137.805 46.6462 135.295 46.6146 135.295 46.6146V45.6567C135.295 45.6567 131.294 43.3901 127.373 43.3901C123.451 43.3901 119.843 44.5712 119.843 44.5712V46.8061C119.843 46.8061 122.274 48.0516 122.274 48.2431C122.274 48.4347 118.903 49.1688 116.157 49.1688C113.412 49.1688 110.51 47.4769 109.883 47.1254C109.256 46.774 112.471 46.0077 113.412 46.0077C114.353 46.0077 117.49 46.1993 118.354 46.5185" stroke="white" stroke-width="1.6"/>
<path d="M113.961 45.8484C113.961 45.8484 114.197 44.0921 113.961 44.0921C113.726 44.0921 115.372 43.4219 116.863 43.9327C118.354 44.4436 119.373 44.9227 119.373 44.9227" stroke="white" stroke-width="1.6"/>
<path d="M129.648 46.4868V47.2848L132.471 48.2748H134.823" stroke="white" stroke-width="1.6"/>
</g>
<g opacity="0.0568781">
<path d="M224.69 30.101C226.573 30.101 227.482 30.6949 227.482 31.4292C227.482 32.1699 226.573 32.7446 224.58 32.7446H220.439V30.101H224.69ZM225.365 33.6067C226.902 33.5556 228.047 33.3193 228.784 32.9106C229.537 32.4956 229.914 32.0039 229.914 31.4292C229.914 30.8098 229.49 30.2862 228.627 29.852C227.765 29.4241 226.478 29.207 224.753 29.207H218.055V36.295H220.439V33.6386H222.667L227.169 36.295H230.024L225.365 33.6067Z" fill="#24262B"/>
<path d="M243.661 31.4932H241.198L237.669 34.9669L234.124 31.4932H231.677L236.398 36.1482L233.92 38.6322H236.32L243.661 31.4932Z" fill="#24262B"/>
<path d="M257.032 33.8746C257.032 33.1275 256.483 32.5273 255.369 32.0739C254.287 31.6142 252.875 31.3843 251.181 31.3843C249.456 31.3843 248.013 31.6142 246.852 32.0739C245.722 32.5273 245.142 33.1275 245.142 33.8746C245.142 34.6281 245.722 35.2348 246.852 35.7009C248.013 36.1607 249.456 36.3969 251.181 36.3969C253.518 36.3969 255.62 35.9436 256.609 35.1198L255.652 34.9793C255.197 34.9027 254.867 34.8452 254.632 34.8133C254.005 35.2731 252.687 35.554 251.244 35.554C249.236 35.554 247.715 35.0368 247.432 34.245H257.016C257.032 34.1748 257.032 34.0534 257.032 33.8746ZM247.432 33.517C247.715 32.7252 249.173 32.2336 251.181 32.2336C253.095 32.2336 254.491 32.7252 254.758 33.517H247.432Z" fill="#24262B"/>
<path d="M269.575 29.6797H267.285V31.4932H265.167V32.285H267.285V36.2951H269.575V32.285H272.085V31.4932H269.575V29.6797Z" fill="#24262B"/>
<path d="M283.909 33.8746C283.909 34.3599 283.533 34.7495 282.764 35.0496C282.042 35.3497 281.101 35.4902 280.019 35.4902C278.921 35.4902 277.995 35.3497 277.227 35.0496C276.505 34.7495 276.129 34.3599 276.129 33.8746C276.129 33.4021 276.505 33.0254 277.227 32.7316C277.995 32.4443 278.921 32.3038 280.019 32.3038C281.101 32.3038 282.042 32.4443 282.764 32.7316C283.533 33.0254 283.909 33.4021 283.909 33.8746ZM273.854 33.8746C273.854 34.6281 274.45 35.2348 275.642 35.7009C276.834 36.1607 278.293 36.3969 280.019 36.3969C281.729 36.3969 283.203 36.1607 284.38 35.7009C285.603 35.222 286.199 34.6154 286.199 33.8746C286.199 33.1339 285.603 32.5401 284.411 32.0739C283.219 31.6142 281.76 31.3843 280.019 31.3843C278.262 31.3843 276.803 31.6142 275.611 32.0739C274.434 32.5401 273.854 33.1339 273.854 33.8746Z" fill="#24262B"/>
<path d="M298.488 33.8746C298.488 34.3727 298.111 34.7622 297.358 35.0496C296.59 35.3369 295.664 35.4838 294.566 35.4838C293.484 35.4838 292.574 35.3305 291.837 35.0304C291.115 34.7303 290.723 34.3408 290.723 33.8746C290.723 33.4149 291.084 33.0317 291.821 32.7444C292.543 32.4443 293.484 32.3038 294.566 32.3038C295.602 32.3038 296.511 32.4443 297.296 32.7252C298.08 32.9998 298.488 33.3957 298.488 33.8746ZM300.794 36.2948V31.4928H298.519V32.208C297.782 31.6844 296.088 31.3843 294.362 31.3843C292.7 31.3843 291.288 31.6142 290.127 32.0739C288.966 32.5401 288.386 33.1339 288.386 33.8874C288.386 34.6281 288.966 35.2348 290.127 35.7009C291.288 36.1607 292.7 36.3969 294.362 36.3969C296.088 36.3969 297.735 36.0904 298.519 35.554V36.2948H300.794Z" fill="#24262B"/>
<path d="M308.813 34.328C309.801 34.4238 310.413 34.609 310.381 34.9346C310.365 35.2731 309.675 35.5349 308.593 35.5668C307.856 35.586 307.244 35.5349 306.726 35.4008C306.193 35.2858 305.864 35.1134 305.754 34.8516H303.667C303.683 35.3178 304.138 35.7009 305.032 35.9755C305.911 36.2564 306.93 36.3969 308.06 36.3969C309.346 36.3969 310.413 36.2628 311.291 36.0074C312.185 35.7392 312.64 35.388 312.64 34.9602C312.64 34.2258 311.62 33.7661 309.581 33.5554L307.84 33.383C307.103 33.2936 306.616 33.1658 306.444 33.0126C306.318 32.9104 306.318 32.7891 306.413 32.6295C306.601 32.374 307.307 32.2016 308.185 32.2016C309.126 32.2016 309.911 32.406 310.036 32.7444H312.232C312.028 31.8313 310.334 31.3843 308.138 31.3843C307.071 31.3843 306.146 31.4992 305.362 31.7355C304.577 31.9717 304.122 32.2591 304.044 32.6103C303.84 33.466 304.954 33.9257 307.197 34.1748L308.813 34.328Z" fill="#24262B"/>
<path d="M318.717 29.6797H316.427V31.4932H314.309V32.285H316.427V36.2951H318.717V32.285H321.227V31.4932H318.717V29.6797Z" fill="#24262B"/>
<path d="M347.812 31.4932H345.365L342.4 34.852L339.451 31.4932H337.224L334.259 34.852L331.31 31.4932H328.863L333.349 36.2951H335.231L338.337 32.7639L341.553 36.2951H343.435L347.812 31.4932Z" fill="#24262B"/>
<path d="M350.118 30.152C350.761 30.3883 351.765 30.3883 352.376 30.152C353.004 29.9158 353.004 29.5263 352.376 29.29C351.765 29.0537 350.761 29.0537 350.118 29.29C349.522 29.5263 349.522 29.9158 350.118 30.152ZM352.392 36.2949V31.493H350.118V36.2949H352.392Z" fill="#24262B"/>
<path d="M359.376 29.6797H357.085V31.4932H354.968V32.285H357.085V36.2951H359.376V32.285H361.885V31.4932H359.376V29.6797Z" fill="#24262B"/>
<path d="M366.729 33.7025C366.729 33.2299 367.09 32.8787 367.812 32.6552C368.549 32.419 369.38 32.304 370.322 32.304C371.969 32.304 373.098 32.7957 373.098 33.5811V36.295H375.404V33.5173C375.42 32.1699 373.584 31.3845 370.62 31.3845C369.882 31.3845 369.129 31.4611 368.345 31.6016C367.592 31.7357 367.059 31.9401 366.729 32.2083V28.875H364.424V36.295H366.729V33.7025Z" fill="#24262B"/>
<path d="M390.98 31.3843C389.224 31.3843 387.765 31.6142 386.557 32.0739C385.333 32.5401 384.737 33.1339 384.737 33.8746C384.737 34.6154 385.333 35.222 386.557 35.7009C387.765 36.1607 389.224 36.3969 390.98 36.3969C392.847 36.3969 394.353 36.1415 395.545 35.6179L393.773 35.0177C393.051 35.3369 392.11 35.4902 390.98 35.4902C389.882 35.4902 388.957 35.3369 388.173 35.0368C387.388 34.7431 387.012 34.3472 387.012 33.8746C387.012 33.4149 387.388 33.0317 388.173 32.7444C388.957 32.4443 389.882 32.3038 390.98 32.3038C392.11 32.3038 393.051 32.457 393.773 32.7572L395.529 32.1569C394.353 31.6461 392.847 31.3843 390.98 31.3843Z" fill="#24262B"/>
<path d="M400.361 34.5451C400.361 33.185 401.443 32.2846 403.592 32.2846C404.204 32.2846 404.784 32.3357 405.349 32.4443L405.694 31.5695C405.271 31.4481 404.58 31.3843 403.655 31.3843C402.023 31.3843 400.941 31.7802 400.361 32.572V31.4928H398.055V36.2948H400.361V34.5451Z" fill="#24262B"/>
<path d="M419.09 33.8746C419.09 33.1275 418.541 32.5273 417.427 32.0739C416.345 31.6142 414.933 31.3843 413.239 31.3843C411.514 31.3843 410.071 31.6142 408.91 32.0739C407.78 32.5273 407.2 33.1275 407.2 33.8746C407.2 34.6281 407.78 35.2348 408.91 35.7009C410.071 36.1607 411.514 36.3969 413.239 36.3969C415.576 36.3969 417.678 35.9436 418.667 35.1198L417.71 34.9793C417.255 34.9027 416.925 34.8452 416.69 34.8133C416.063 35.2731 414.745 35.554 413.302 35.554C411.294 35.554 409.773 35.0368 409.49 34.245H419.074C419.09 34.1748 419.09 34.0534 419.09 33.8746ZM409.49 33.517C409.773 32.7252 411.231 32.2336 413.239 32.2336C415.153 32.2336 416.549 32.7252 416.816 33.517H409.49Z" fill="#24262B"/>
<path d="M431.256 33.8746C431.256 34.3727 430.88 34.7622 430.127 35.0496C429.358 35.3369 428.433 35.4838 427.335 35.4838C426.253 35.4838 425.343 35.3305 424.605 35.0304C423.884 34.7303 423.492 34.3408 423.492 33.8746C423.492 33.4149 423.853 33.0317 424.59 32.7444C425.311 32.4443 426.253 32.3038 427.335 32.3038C428.37 32.3038 429.28 32.4443 430.064 32.7252C430.849 32.9998 431.256 33.3957 431.256 33.8746ZM433.562 36.2948V31.4928H431.288V32.208C430.551 31.6844 428.856 31.3843 427.131 31.3843C425.468 31.3843 424.056 31.6142 422.896 32.0739C421.735 32.5401 421.154 33.1339 421.154 33.8874C421.154 34.6281 421.735 35.2348 422.896 35.7009C424.056 36.1607 425.468 36.3969 427.131 36.3969C428.856 36.3969 430.503 36.0904 431.288 35.554V36.2948H433.562Z" fill="#24262B"/>
<path d="M450.867 32.3038C452.562 32.3038 453.565 32.7891 453.565 33.5809V36.2948H455.871V33.517C455.871 32.1569 454.256 31.3843 451.322 31.3843C449.424 31.3843 448.06 31.7163 447.228 32.374C446.664 31.8504 445.628 31.5311 444.138 31.4354C443.73 31.4098 443.307 31.397 442.852 31.4098C441.66 31.4481 440.169 31.7291 439.589 32.208V31.4928H437.283V36.2948H439.589V33.7022C439.589 32.7636 441.064 32.3038 442.883 32.3038C444.42 32.3038 445.424 32.7891 445.424 33.5681V36.2948H447.73V33.7022C447.73 32.8785 448.938 32.291 450.867 32.3038Z" fill="#24262B"/>
<path d="M223.074 47.3481C221.318 47.3481 219.859 47.578 218.651 48.0378C217.427 48.5039 216.831 49.0978 216.831 49.8385C216.831 50.5792 217.427 51.1859 218.651 51.6648C219.859 52.1245 221.318 52.3608 223.074 52.3608C224.941 52.3608 226.447 52.1054 227.639 51.5818L225.867 50.9815C225.145 51.3008 224.204 51.454 223.074 51.454C221.976 51.454 221.051 51.3008 220.267 51.0007C219.482 50.7069 219.106 50.311 219.106 49.8385C219.106 49.3787 219.482 48.9956 220.267 48.7083C221.051 48.4081 221.976 48.2677 223.074 48.2677C224.204 48.2677 225.145 48.4209 225.867 48.721L227.624 48.1208C226.447 47.61 224.941 47.3481 223.074 47.3481Z" fill="#24262B"/>
<path d="M232.455 49.6663C232.455 49.1938 232.816 48.8426 233.537 48.6191C234.274 48.3828 235.106 48.2679 236.047 48.2679C237.694 48.2679 238.824 48.7596 238.824 49.545V52.2589H241.129V49.4812C241.145 48.1338 239.31 47.3484 236.345 47.3484C235.608 47.3484 234.855 47.425 234.071 47.5655C233.318 47.6996 232.784 47.9039 232.455 48.1721V44.8389H230.149V52.2589H232.455V49.6663Z" fill="#24262B"/>
<path d="M255.827 49.8385C255.827 49.0914 255.278 48.4912 254.165 48.0378C253.082 47.578 251.671 47.3481 249.976 47.3481C248.251 47.3481 246.808 47.578 245.647 48.0378C244.518 48.4912 243.937 49.0914 243.937 49.8385C243.937 50.592 244.518 51.1986 245.647 51.6648C246.808 52.1245 248.251 52.3608 249.976 52.3608C252.314 52.3608 254.416 51.9074 255.404 51.0837L254.447 50.9432C253.992 50.8666 253.663 50.8091 253.427 50.7772C252.8 51.2369 251.482 51.5179 250.039 51.5179C248.031 51.5179 246.51 51.0007 246.227 50.2089H255.812C255.827 50.1386 255.827 50.0173 255.827 49.8385ZM246.227 49.4809C246.51 48.6891 247.969 48.1974 249.976 48.1974C251.89 48.1974 253.286 48.6891 253.553 49.4809H246.227Z" fill="#24262B"/>
<path d="M269.782 49.8385C269.782 49.0914 269.233 48.4912 268.119 48.0378C267.037 47.578 265.625 47.3481 263.931 47.3481C262.205 47.3481 260.762 47.578 259.602 48.0378C258.472 48.4912 257.892 49.0914 257.892 49.8385C257.892 50.592 258.472 51.1986 259.602 51.6648C260.762 52.1245 262.205 52.3608 263.931 52.3608C266.268 52.3608 268.37 51.9074 269.358 51.0837L268.402 50.9432C267.947 50.8666 267.617 50.8091 267.382 50.7772C266.754 51.2369 265.437 51.5179 263.994 51.5179C261.986 51.5179 260.464 51.0007 260.182 50.2089H269.766C269.782 50.1386 269.782 50.0173 269.782 49.8385ZM260.182 49.4809C260.464 48.6891 261.923 48.1974 263.931 48.1974C265.845 48.1974 267.241 48.6891 267.507 49.4809H260.182Z" fill="#24262B"/>
<path d="M276.913 50.2919C277.901 50.3877 278.513 50.5728 278.482 50.8985C278.466 51.2369 277.776 51.4987 276.693 51.5307C275.956 51.5498 275.344 51.4987 274.827 51.3647C274.293 51.2497 273.964 51.0773 273.854 50.8155H271.768C271.784 51.2816 272.238 51.6648 273.133 51.9393C274.011 52.2203 275.031 52.3608 276.16 52.3608C277.446 52.3608 278.513 52.2267 279.391 51.9713C280.285 51.7031 280.74 51.3519 280.74 50.924C280.74 50.1897 279.721 49.73 277.682 49.5192L275.94 49.3468C275.203 49.2574 274.717 49.1297 274.544 48.9765C274.419 48.8743 274.419 48.753 274.513 48.5933C274.701 48.3379 275.407 48.1655 276.285 48.1655C277.227 48.1655 278.011 48.3698 278.136 48.7083H280.333C280.129 47.7951 278.434 47.3481 276.238 47.3481C275.172 47.3481 274.246 47.4631 273.462 47.6993C272.678 47.9356 272.223 48.223 272.144 48.5742C271.94 49.4298 273.054 49.8896 275.297 50.1386L276.913 50.2919Z" fill="#24262B"/>
<path d="M294.755 49.8385C294.755 49.0914 294.205 48.4912 293.092 48.0378C292.009 47.578 290.598 47.3481 288.904 47.3481C287.178 47.3481 285.735 47.578 284.574 48.0378C283.445 48.4912 282.864 49.0914 282.864 49.8385C282.864 50.592 283.445 51.1986 284.574 51.6648C285.735 52.1245 287.178 52.3608 288.904 52.3608C291.241 52.3608 293.343 51.9074 294.331 51.0837L293.374 50.9432C292.919 50.8666 292.59 50.8091 292.355 50.7772C291.727 51.2369 290.409 51.5179 288.966 51.5179C286.958 51.5179 285.437 51.0007 285.155 50.2089H294.739C294.755 50.1386 294.755 50.0173 294.755 49.8385ZM285.155 49.4809C285.437 48.6891 286.896 48.1974 288.904 48.1974C290.817 48.1974 292.213 48.6891 292.48 49.4809H285.155Z" fill="#24262B"/>
<path d="M297.729 53.5552C298.936 53.1466 300.05 52.259 300.254 51.0776H297.823C297.87 51.9078 297.289 52.6676 296.097 53.3381L297.729 53.5552Z" fill="#24262B"/>
<path d="M319.896 49.8385C319.896 50.3366 319.52 50.7261 318.767 51.0134C317.998 51.3008 317.073 51.4477 315.975 51.4477C314.893 51.4477 313.983 51.2944 313.245 50.9943C312.524 50.6942 312.132 50.3047 312.132 49.8385C312.132 49.3787 312.493 48.9956 313.23 48.7083C313.951 48.4081 314.893 48.2677 315.975 48.2677C317.01 48.2677 317.92 48.4081 318.704 48.6891C319.489 48.9637 319.896 49.3596 319.896 49.8385ZM322.202 52.2586V47.4567H319.928V48.1719C319.191 47.6483 317.496 47.3481 315.771 47.3481C314.108 47.3481 312.696 47.578 311.536 48.0378C310.375 48.5039 309.794 49.0978 309.794 49.8513C309.794 50.592 310.375 51.1986 311.536 51.6648C312.696 52.1245 314.108 52.3608 315.771 52.3608C317.496 52.3608 319.144 52.0543 319.928 51.5179V52.2586H322.202Z" fill="#24262B"/>
<path d="M329.343 52.259H331.57H331.539L336.464 47.457H334.017L330.456 51.0649L326.864 47.457H324.433L329.343 52.259Z" fill="#24262B"/>
<path d="M348.009 49.8385C348.009 50.3238 347.633 50.7133 346.864 51.0134C346.143 51.3136 345.202 51.454 344.119 51.454C343.021 51.454 342.096 51.3136 341.327 51.0134C340.605 50.7133 340.229 50.3238 340.229 49.8385C340.229 49.366 340.605 48.9892 341.327 48.6955C342.096 48.4081 343.021 48.2677 344.119 48.2677C345.202 48.2677 346.143 48.4081 346.864 48.6955C347.633 48.9892 348.009 49.366 348.009 49.8385ZM337.954 49.8385C337.954 50.592 338.551 51.1986 339.743 51.6648C340.935 52.1245 342.394 52.3608 344.119 52.3608C345.829 52.3608 347.304 52.1245 348.48 51.6648C349.704 51.1859 350.3 50.5792 350.3 49.8385C350.3 49.0978 349.704 48.5039 348.511 48.0378C347.319 47.578 345.86 47.3481 344.119 47.3481C342.362 47.3481 340.904 47.578 339.711 48.0378C338.535 48.5039 337.954 49.0978 337.954 49.8385Z" fill="#24262B"/>
<path d="M358.729 47.3481C356.973 47.3481 355.514 47.578 354.306 48.0378C353.082 48.5039 352.486 49.0978 352.486 49.8385C352.486 50.5792 353.082 51.1859 354.306 51.6648C355.514 52.1245 356.973 52.3608 358.729 52.3608C360.596 52.3608 362.102 52.1054 363.294 51.5818L361.522 50.9815C360.8 51.3008 359.859 51.454 358.729 51.454C357.631 51.454 356.706 51.3008 355.922 51.0007C355.137 50.7069 354.761 50.311 354.761 49.8385C354.761 49.3787 355.137 48.9956 355.922 48.7083C356.706 48.4081 357.631 48.2677 358.729 48.2677C359.859 48.2677 360.8 48.4209 361.522 48.721L363.278 48.1208C362.102 47.61 360.596 47.3481 358.729 47.3481Z" fill="#24262B"/>
<path d="M375.137 49.8385C375.137 50.3366 374.761 50.7261 374.008 51.0134C373.239 51.3008 372.314 51.4477 371.216 51.4477C370.133 51.4477 369.224 51.2944 368.486 50.9943C367.765 50.6942 367.373 50.3047 367.373 49.8385C367.373 49.3787 367.733 48.9956 368.471 48.7083C369.192 48.4081 370.133 48.2677 371.216 48.2677C372.251 48.2677 373.161 48.4081 373.945 48.6891C374.729 48.9637 375.137 49.3596 375.137 49.8385ZM377.443 52.2586V47.4567H375.169V48.1719C374.431 47.6483 372.737 47.3481 371.012 47.3481C369.349 47.3481 367.937 47.578 366.776 48.0378C365.616 48.5039 365.035 49.0978 365.035 49.8513C365.035 50.592 365.616 51.1986 366.776 51.6648C367.937 52.1245 369.349 52.3608 371.012 52.3608C372.737 52.3608 374.384 52.0543 375.169 51.5179V52.2586H377.443Z" fill="#24262B"/>
<path d="M386.56 48.2679C387.595 48.2679 388.505 48.4084 389.289 48.6893C390.074 48.9639 390.466 49.3598 390.466 49.8387C390.466 50.324 390.089 50.7136 389.305 51.0137C388.552 51.301 387.642 51.4479 386.56 51.4479C385.462 51.4479 384.552 51.2947 383.831 50.9945C383.093 50.6944 382.733 50.3049 382.733 49.8387C382.733 49.379 383.093 48.9959 383.831 48.7085C384.552 48.4084 385.462 48.2679 386.56 48.2679ZM392.803 52.2589V44.8389H390.497V48.1721C389.713 47.6421 388.129 47.3484 386.325 47.3484C384.662 47.3484 383.25 47.5783 382.105 48.038C380.976 48.5042 380.395 49.098 380.395 49.8515C380.395 50.5922 380.976 51.1989 382.105 51.665C383.266 52.1248 384.678 52.361 386.356 52.361C388.066 52.361 389.713 52.0545 390.497 51.5181V52.2589H392.803Z" fill="#24262B"/>
<path d="M405.81 49.8385C405.81 50.3238 405.434 50.7133 404.665 51.0134C403.944 51.3136 403.002 51.454 401.92 51.454C400.822 51.454 399.896 51.3136 399.128 51.0134C398.406 50.7133 398.03 50.3238 398.03 49.8385C398.03 49.366 398.406 48.9892 399.128 48.6955C399.896 48.4081 400.822 48.2677 401.92 48.2677C403.002 48.2677 403.944 48.4081 404.665 48.6955C405.434 48.9892 405.81 49.366 405.81 49.8385ZM395.755 49.8385C395.755 50.592 396.351 51.1986 397.544 51.6648C398.736 52.1245 400.194 52.3608 401.92 52.3608C403.63 52.3608 405.104 52.1245 406.281 51.6648C407.504 51.1859 408.1 50.5792 408.1 49.8385C408.1 49.0978 407.504 48.5039 406.312 48.0378C405.12 47.578 403.661 47.3481 401.92 47.3481C400.163 47.3481 398.704 47.578 397.512 48.0378C396.336 48.5039 395.755 49.0978 395.755 49.8385Z" fill="#24262B"/>
<path d="M411.197 53.5552C412.405 53.1466 413.518 52.259 413.722 51.0776H411.291C411.338 51.9078 410.758 52.6676 409.565 53.3381L411.197 53.5552Z" fill="#24262B"/>
<path d="M427.216 45.6436H424.925V47.457H422.808V48.2489H424.925V52.259H427.216V48.2489H429.725V47.457H427.216V45.6436Z" fill="#24262B"/>
<path d="M441.55 49.8385C441.55 50.3238 441.173 50.7133 440.405 51.0134C439.683 51.3136 438.742 51.454 437.66 51.454C436.562 51.454 435.636 51.3136 434.867 51.0134C434.146 50.7133 433.769 50.3238 433.769 49.8385C433.769 49.366 434.146 48.9892 434.867 48.6955C435.636 48.4081 436.562 48.2677 437.66 48.2677C438.742 48.2677 439.683 48.4081 440.405 48.6955C441.173 48.9892 441.55 49.366 441.55 49.8385ZM431.495 49.8385C431.495 50.592 432.091 51.1986 433.283 51.6648C434.475 52.1245 435.934 52.3608 437.66 52.3608C439.369 52.3608 440.844 52.1245 442.02 51.6648C443.244 51.1859 443.84 50.5792 443.84 49.8385C443.84 49.0978 443.244 48.5039 442.052 48.0378C440.86 47.578 439.401 47.3481 437.66 47.3481C435.903 47.3481 434.444 47.578 433.252 48.0378C432.075 48.5039 431.495 49.0978 431.495 49.8385Z" fill="#24262B"/>
<path d="M460.38 48.2677C462.074 48.2677 463.078 48.753 463.078 49.5448V52.2586H465.384V49.4809C465.384 48.1208 463.768 47.3481 460.835 47.3481C458.936 47.3481 457.572 47.6802 456.74 48.3379C456.176 47.8143 455.14 47.495 453.65 47.3992C453.242 47.3737 452.819 47.3609 452.364 47.3737C451.172 47.412 449.682 47.693 449.101 48.1719V47.4567H446.795V52.2586H449.101V49.6661C449.101 48.7274 450.576 48.2677 452.395 48.2677C453.933 48.2677 454.936 48.753 454.936 49.532V52.2586H457.242V49.6661C457.242 48.8424 458.45 48.2549 460.38 48.2677Z" fill="#24262B"/>
<path d="M478.24 49.8385C478.24 50.3366 477.863 50.7261 477.111 51.0134C476.342 51.3008 475.416 51.4477 474.318 51.4477C473.236 51.4477 472.326 51.2944 471.589 50.9943C470.867 50.6942 470.475 50.3047 470.475 49.8385C470.475 49.3787 470.836 48.9956 471.573 48.7083C472.295 48.4081 473.236 48.2677 474.318 48.2677C475.354 48.2677 476.263 48.4081 477.048 48.6891C477.832 48.9637 478.24 49.3596 478.24 49.8385ZM480.546 52.2586V47.4567H478.271V48.1719C477.534 47.6483 475.84 47.3481 474.114 47.3481C472.452 47.3481 471.04 47.578 469.879 48.0378C468.718 48.5039 468.138 49.0978 468.138 49.8513C468.138 50.592 468.718 51.1986 469.879 51.6648C471.04 52.1245 472.452 52.3608 474.114 52.3608C475.84 52.3608 477.487 52.0543 478.271 51.5179V52.2586H480.546Z" fill="#24262B"/>
<path d="M487.451 45.6436H485.161V47.457H483.043V48.2489H485.161V52.259H487.451V48.2489H489.961V47.457H487.451V45.6436Z" fill="#24262B"/>
<path d="M501.785 49.8385C501.785 50.3238 501.409 50.7133 500.64 51.0134C499.918 51.3136 498.977 51.454 497.895 51.454C496.797 51.454 495.871 51.3136 495.103 51.0134C494.381 50.7133 494.005 50.3238 494.005 49.8385C494.005 49.366 494.381 48.9892 495.103 48.6955C495.871 48.4081 496.797 48.2677 497.895 48.2677C498.977 48.2677 499.918 48.4081 500.64 48.6955C501.409 48.9892 501.785 49.366 501.785 49.8385ZM491.73 49.8385C491.73 50.592 492.326 51.1986 493.518 51.6648C494.711 52.1245 496.169 52.3608 497.895 52.3608C499.605 52.3608 501.079 52.1245 502.256 51.6648C503.479 51.1859 504.075 50.5792 504.075 49.8385C504.075 49.0978 503.479 48.5039 502.287 48.0378C501.095 47.578 499.636 47.3481 497.895 47.3481C496.138 47.3481 494.679 47.578 493.487 48.0378C492.311 48.5039 491.73 49.0978 491.73 49.8385Z" fill="#24262B"/>
<path d="M507.313 52.1889C507.94 52.4251 509.007 52.4251 509.635 52.1889C510.325 51.9398 510.325 51.5056 509.635 51.2629C509.007 51.0139 507.94 51.0139 507.313 51.2629C506.686 51.5056 506.686 51.9398 507.313 52.1889Z" fill="#24262B"/>
<path d="M513.989 52.1889C514.616 52.4251 515.683 52.4251 516.311 52.1889C517.001 51.9398 517.001 51.5056 516.311 51.2629C515.683 51.0139 514.616 51.0139 513.989 51.2629C513.362 51.5056 513.362 51.9398 513.989 52.1889Z" fill="#24262B"/>
<path d="M520.665 52.1889C521.293 52.4251 522.359 52.4251 522.987 52.1889C523.677 51.9398 523.677 51.5056 522.987 51.2629C522.359 51.0139 521.293 51.0139 520.665 51.2629C520.038 51.5056 520.038 51.9398 520.665 52.1889Z" fill="#24262B"/>
</g>
<g opacity="0.0568781">
<path d="M286.44 66.9757V74.7837C286.44 76.9383 282.143 78.6876 276.85 78.6876H236.091C230.799 78.6876 226.501 76.9383 226.501 74.7837V66.9757C226.501 64.8211 230.799 63.0718 236.091 63.0718H276.85C282.143 63.0718 286.44 64.8211 286.44 66.9757Z" fill="#98AB02"/>
</g>
<g opacity="0.0568781">
<path d="M245.825 67.585V68.3755H252.323L245.574 73.3628H247.851L255.631 67.585H245.825Z" fill="white"/>
<path d="M257.262 67.585V68.3755H263.759L257.01 73.3628H259.288L267.068 67.585H257.262Z" fill="white"/>
</g>
<g opacity="0.0568781">
<path d="M314.102 63.7398C315.435 63.7398 316.125 64.1485 316.125 64.6721C316.125 65.1894 315.451 65.5917 314.024 65.5917H310.871V63.7398H314.102ZM309.82 67.7436H310.871V66.0131H314.102C315.122 66.0131 315.89 65.8854 316.408 65.63C316.91 65.3618 317.161 65.0489 317.161 64.6721C317.161 64.289 316.91 63.9697 316.408 63.7079C315.89 63.4397 315.122 63.312 314.102 63.312H309.82V67.7436Z" fill="#24262B"/>
<path d="M319.514 66.0324C319.718 65.4641 320.769 65.1002 322.165 65.1002C323.514 65.1002 324.502 65.4577 324.706 66.0324H319.514ZM322.165 67.8076C323.671 67.8076 324.941 67.4947 325.537 66.9583L325.004 66.9137C324.769 66.8945 324.58 66.8753 324.471 66.8626C324.016 67.1882 323.153 67.3862 322.165 67.3862C320.769 67.3862 319.702 67.003 319.514 66.4347H325.773C325.788 66.3964 325.788 66.3262 325.788 66.2304C325.788 65.7643 325.443 65.3811 324.769 65.1002C324.094 64.8192 323.216 64.6787 322.165 64.6787C321.098 64.6787 320.204 64.8192 319.498 65.1065C318.792 65.3875 318.431 65.7643 318.431 66.2304C318.431 66.7029 318.792 67.0797 319.498 67.3734C320.204 67.6608 321.114 67.8076 322.165 67.8076Z" fill="#24262B"/>
<path d="M332.063 64.7937C331.906 64.7426 331.341 64.6787 330.855 64.6787C329.804 64.6787 329.082 64.9277 328.737 65.4194V64.7426H327.686V67.7438H328.737V66.6263C328.737 66.1921 328.91 65.8345 329.255 65.5471C329.616 65.2534 330.149 65.1065 330.855 65.1065C331.231 65.1065 331.592 65.1385 331.922 65.2087L332.063 64.7937Z" fill="#24262B"/>
<path d="M337.176 66.8817C337.208 67.1563 337.475 67.3862 337.992 67.5586C338.51 67.7246 339.09 67.8076 339.749 67.8076C340.533 67.8076 341.161 67.7246 341.678 67.565C342.212 67.399 342.463 67.1818 342.463 66.9264C342.463 66.4667 341.835 66.1729 340.596 66.0516L339.576 65.9558C338.745 65.8728 338.384 65.7068 338.494 65.4514C338.573 65.2406 339.153 65.0874 339.875 65.0874C340.518 65.0874 341.035 65.2279 341.161 65.4514H342.196C341.992 64.9341 341.082 64.6787 339.875 64.6787C338.651 64.6787 337.616 64.9724 337.459 65.3875C337.38 65.7259 337.553 65.9686 337.992 66.1155C338.431 66.2496 338.776 66.3134 339.326 66.3645L340.361 66.4667C341.067 66.5369 341.412 66.6902 341.412 66.9264C341.412 67.2074 340.8 67.4053 339.859 67.4053C338.918 67.4053 338.337 67.2265 338.118 66.8817H337.176Z" fill="#24262B"/>
<path d="M344.988 66.0324C345.192 65.4641 346.243 65.1002 347.639 65.1002C348.988 65.1002 349.976 65.4577 350.18 66.0324H344.988ZM347.639 67.8076C349.145 67.8076 350.416 67.4947 351.012 66.9583L350.478 66.9137C350.243 66.8945 350.055 66.8753 349.945 66.8626C349.49 67.1882 348.627 67.3862 347.639 67.3862C346.243 67.3862 345.176 67.003 344.988 66.4347H351.247C351.263 66.3964 351.263 66.3262 351.263 66.2304C351.263 65.7643 350.918 65.3811 350.243 65.1002C349.569 64.8192 348.69 64.6787 347.639 64.6787C346.573 64.6787 345.678 64.8192 344.973 65.1065C344.267 65.3875 343.906 65.7643 343.906 66.2304C343.906 66.7029 344.267 67.0797 344.973 67.3734C345.678 67.6608 346.588 67.8076 347.639 67.8076Z" fill="#24262B"/>
<path d="M357.537 64.7937C357.38 64.7426 356.816 64.6787 356.329 64.6787C355.278 64.6787 354.557 64.9277 354.212 65.4194V64.7426H353.161V67.7438H354.212V66.6263C354.212 66.1921 354.384 65.8345 354.729 65.5471C355.09 65.2534 355.624 65.1065 356.329 65.1065C356.706 65.1065 357.067 65.1385 357.396 65.2087L357.537 64.7937Z" fill="#24262B"/>
<path d="M361.224 67.7439H362.353H362.337L365.396 64.7427H364.282L361.788 67.2394L359.278 64.7427H358.165L361.224 67.7439Z" fill="#24262B"/>
<path d="M366.965 63.8485C367.278 63.9571 367.78 63.9571 368.094 63.8485C368.408 63.7272 368.408 63.5101 368.094 63.4015C367.78 63.2802 367.278 63.2802 366.965 63.4015C366.635 63.5101 366.635 63.7272 366.965 63.8485ZM368.031 67.7437V64.7425H366.996V67.7437H368.031Z" fill="#24262B"/>
<path d="M371.624 66.1027C371.624 65.7643 371.859 65.5152 372.345 65.3492C372.847 65.1832 373.412 65.1002 374.071 65.1002C375.216 65.1002 375.859 65.4322 375.859 65.9941V67.7438H376.91V65.9941C376.925 65.1704 375.859 64.6787 374.071 64.6787C373.129 64.6787 372.047 64.8703 371.624 65.2343V64.7426H370.573V67.7438H371.624V66.1027Z" fill="#24262B"/>
<path d="M379.31 68.4973C380.016 68.989 381.192 69.2444 382.478 69.2444C385.114 69.2444 386.431 68.5867 386.431 67.2649V64.7426H385.365V65.2534C384.847 64.8894 383.718 64.6787 382.588 64.6787C381.522 64.6787 380.612 64.8256 379.89 65.1129C379.184 65.4003 378.808 65.7834 378.808 66.2496C378.808 66.7221 379.184 67.0924 379.89 67.3862C380.612 67.6671 381.522 67.8076 382.588 67.8076C383.733 67.8076 384.91 67.5777 385.365 67.1946C385.38 68.3632 384.314 68.8165 382.478 68.8165C381.49 68.8165 380.722 68.6377 380.204 68.2865L379.31 68.4973ZM379.875 66.2496C379.875 65.9239 380.126 65.6493 380.643 65.4322C381.161 65.2151 381.82 65.1065 382.588 65.1065C383.373 65.1065 384.047 65.2087 384.565 65.413C385.098 65.6174 385.365 65.8983 385.365 66.2496C385.365 66.6008 385.082 66.8753 384.518 67.0733C383.969 67.2712 383.31 67.3798 382.588 67.3798C381.82 67.3798 381.161 67.2712 380.643 67.0669C380.126 66.8626 379.875 66.5944 379.875 66.2496Z" fill="#24262B"/>
</g>
<g opacity="0.0568781">
<path d="M310.714 78.4396H319.953V77.6542H312.769V75.7832H318.839V74.9978H312.769V73.0183H319.733V72.2393H310.714V78.4396Z" fill="#98AB02"/>
<path d="M324.722 76.1727C324.722 75.3426 326.039 74.9467 327.655 74.9467C329.067 74.9467 329.929 75.3681 329.929 76.0641V78.4396H331.937V76.0067C331.937 74.819 330.525 74.1421 327.953 74.1421C326.698 74.1421 325.333 74.3975 324.722 74.8637V74.2379H322.714V78.4396H324.722V76.1727Z" fill="#98AB02"/>
<path d="M335.109 73.0629C335.658 73.2736 336.536 73.2736 337.07 73.0629C337.619 72.8586 337.619 72.5137 337.07 72.3094C336.536 72.0987 335.658 72.0987 335.109 72.3094C334.576 72.5137 334.576 72.8586 335.109 73.0629ZM333.399 80.5021C335.878 80.5021 337.117 79.8954 337.117 78.7013V74.2378H335.078V78.6886C335.109 79.3846 334.482 79.7358 333.227 79.7358H332.035V80.5021H333.399Z" fill="#98AB02"/>
<path d="M348.562 76.3259C348.562 76.7474 348.216 77.0922 347.558 77.3476C346.915 77.6094 346.099 77.7372 345.142 77.7372C344.201 77.7372 343.385 77.6094 342.711 77.3476C342.067 77.0922 341.738 76.7474 341.738 76.3259C341.738 75.9109 342.067 75.5788 342.711 75.3234C343.385 75.0744 344.201 74.9467 345.142 74.9467C346.099 74.9467 346.915 75.0744 347.558 75.3234C348.216 75.5788 348.562 75.9109 348.562 76.3259ZM339.746 76.3259C339.746 76.9837 340.279 77.5137 341.33 77.9159C342.365 78.3246 343.652 78.529 345.142 78.529C346.648 78.529 347.934 78.3246 348.969 77.9159C350.036 77.5009 350.569 76.9709 350.569 76.3259C350.569 75.6746 350.036 75.151 349.001 74.7487C347.965 74.34 346.679 74.1421 345.142 74.1421C343.62 74.1421 342.334 74.34 341.299 74.7487C340.264 75.151 339.746 75.6746 339.746 76.3259Z" fill="#98AB02"/>
<path d="M362.359 74.2378H360.21L357.12 77.2773L354.014 74.2378H351.865L356.006 78.3118L353.842 80.4829H355.944L362.359 74.2378Z" fill="#98AB02"/>
<path d="M374.902 71.9453C372.235 71.9453 370.949 72.6477 370.949 73.8099V74.2377H368.957V74.9274H370.949V78.4394H372.988V74.9274H375.373V74.2377H372.988V73.8099C372.957 73.0947 373.6 72.7307 374.902 72.7307H376.031V71.9453H374.902Z" fill="#98AB02"/>
<path d="M379.58 76.907C379.58 75.7193 380.536 74.9275 382.419 74.9275C382.952 74.9275 383.454 74.9722 383.94 75.0744L384.254 74.3081C383.878 74.1996 383.282 74.1421 382.466 74.1421C381.054 74.1421 380.097 74.4869 379.58 75.1829V74.2379H377.572V78.4396H379.58V76.907Z" fill="#98AB02"/>
<path d="M395.987 76.3259C395.987 75.6682 395.501 75.1446 394.513 74.7487C393.572 74.34 392.333 74.1421 390.842 74.1421C389.352 74.1421 388.082 74.34 387.062 74.7487C386.074 75.1446 385.556 75.6682 385.556 76.3259C385.556 76.9837 386.074 77.5137 387.062 77.9159C388.082 78.3246 389.352 78.529 390.842 78.529C392.913 78.529 394.748 78.1331 395.611 77.4115L394.764 77.2902C394.372 77.2263 394.074 77.1688 393.885 77.1433C393.321 77.5456 392.176 77.7882 390.921 77.7882C389.148 77.7882 387.815 77.3412 387.58 76.6452H395.956C395.987 76.5878 395.987 76.4792 395.987 76.3259ZM387.58 76.0067C387.815 75.317 389.101 74.8828 390.842 74.8828C392.536 74.8828 393.744 75.317 393.995 76.0067H387.58Z" fill="#98AB02"/>
<path d="M408.198 76.3259C408.198 75.6682 407.711 75.1446 406.723 74.7487C405.782 74.34 404.543 74.1421 403.053 74.1421C401.562 74.1421 400.292 74.34 399.272 74.7487C398.284 75.1446 397.766 75.6682 397.766 76.3259C397.766 76.9837 398.284 77.5137 399.272 77.9159C400.292 78.3246 401.562 78.529 403.053 78.529C405.123 78.529 406.958 78.1331 407.821 77.4115L406.974 77.2902C406.582 77.2263 406.284 77.1688 406.096 77.1433C405.531 77.5456 404.386 77.7882 403.131 77.7882C401.358 77.7882 400.025 77.3412 399.79 76.6452H408.166C408.198 76.5878 408.198 76.4792 408.198 76.3259ZM399.79 76.0067C400.025 75.317 401.311 74.8828 403.053 74.8828C404.747 74.8828 405.955 75.317 406.205 76.0067H399.79Z" fill="#98AB02"/>
<path d="M410.667 78.4394H412.674V71.9453H410.667V78.4394Z" fill="#98AB02"/>
<path d="M425.211 74.2378H423.062L419.972 77.2773L416.866 74.2378H414.717L418.858 78.3118L416.693 80.4829H418.795L425.211 74.2378Z" fill="#98AB02"/>
</g>
<defs>
<filter id="filter0_f_1_1835" x="132.098" y="0.30127" width="382.078" height="105.397" filterUnits="userSpaceOnUse" color-interpolation-filters="sRGB">
<feFlood flood-opacity="0" result="BackgroundImageFix"/>
<feBlend mode="normal" in="SourceGraphic" in2="BackgroundImageFix" result="shape"/>
<feGaussianBlur stdDeviation="3.75" result="effect1_foregroundBlur_1_1835"/>
</filter>
</defs>
</svg>
