<svg width="48" height="48" viewBox="0 0 48 48" fill="none" xmlns="http://www.w3.org/2000/svg">
<path d="M16.7273 37.8184H31.2727M16.7273 17.4662C16.7273 15.5373 17.4935 13.6875 18.8575 12.3236C20.2212 10.9597 22.0711 10.1934 24 10.1934M40 17.4662C40.002 14.622 39.246 11.8287 37.8095 9.37389C36.3731 6.91909 34.3082 4.89157 31.8276 3.50011C29.3472 2.10865 26.5405 1.40357 23.6969 1.45746C20.8532 1.51135 18.0752 2.32228 15.6492 3.80671C13.2232 5.29117 11.2366 7.39546 9.89426 9.90292C8.55186 12.4104 7.90212 15.2303 8.01193 18.0723C8.12177 20.9144 8.98718 23.6758 10.519 26.0722C12.0363 28.4457 14.153 30.3762 16.6547 31.6688C16.6992 31.6918 16.7273 31.7376 16.7273 31.7877V37.8299C16.7273 41.8464 19.9834 45.1026 24 45.1026C28.0166 45.1026 31.2727 41.8464 31.2727 37.8299V31.8022C31.2727 31.7522 31.3008 31.7064 31.3452 31.6835C33.9405 30.3423 36.1197 28.316 37.6457 25.8236C39.1858 23.3081 40.0006 20.4157 40 17.4662Z" stroke="#2D3246" stroke-width="2" stroke-linecap="round" stroke-linejoin="round"/>
</svg>
